<svg height="512" viewBox="0 0 512 512" width="512" xmlns="http://www.w3.org/2000/svg" xmlns:xlink="http://www.w3.org/1999/xlink"><linearGradient id="a" gradientUnits="userSpaceOnUse" x1="-80.866" x2="417.843" y1="424.866" y2="-73.843" data-name="New Gradient Swatch 1"><stop offset="0" stop-color="#003f8a"/><stop offset=".518" stop-color="#00d7df"/><stop offset="1" stop-color="#006df0"/></linearGradient><linearGradient id="c" x1="-148.866" x2="349.843" xlink:href="#a" y1="356.866" y2="-141.843"/><linearGradient id="d" x1="11.134" x2="509.843" xlink:href="#a" y1="516.866" y2="18.157"/><linearGradient id="f" x1="-212.866" x2="285.843" xlink:href="#a" y1="292.866" y2="-205.843"/><linearGradient id="g" x1="-116.866" x2="381.843" xlink:href="#a" y1="388.866" y2="-109.843"/><linearGradient id="h" x1="3.134" x2="501.843" xlink:href="#a" y1="508.866" y2="10.157"/><linearGradient id="i" x1="99.134" x2="597.843" xlink:href="#a" y1="604.866" y2="106.157"/><linearGradient id="j" x1="-28.866" x2="469.843" xlink:href="#a" y1="476.866" y2="-21.843"/><linearGradient id="k" x1="87.134" x2="585.843" xlink:href="#a" y1="592.866" y2="94.157"/><g><path d="m136 296a88 88 0 1 0 -88-88 88.1 88.1 0 0 0 88 88zm0-160a72 72 0 1 1 -72 72 72.081 72.081 0 0 1 72-72z" fill="url(#a)"/><path d="m136 272a64 64 0 1 0 -64-64 64.072 64.072 0 0 0 64 64zm0-112a48 48 0 1 1 -48 48 48.054 48.054 0 0 1 48-48z" fill="url(#a)"/><path d="m136 112a40 40 0 1 0 -40-40 40.045 40.045 0 0 0 40 40zm0-64a24 24 0 1 1 -24 24 24.028 24.028 0 0 1 24-24z" fill="url(#c)"/><path d="m136 304a88 88 0 1 0 88 88 88.1 88.1 0 0 0 -88-88zm0 160a72 72 0 1 1 72-72 72.081 72.081 0 0 1 -72 72z" fill="url(#d)"/><path d="m136 328a64 64 0 1 0 64 64 64.072 64.072 0 0 0 -64-64zm0 112a48 48 0 1 1 48-48 48.054 48.054 0 0 1 -48 48z" fill="url(#d)"/><circle cx="40" cy="40" fill="url(#f)" r="8"/><circle cx="232" cy="40" fill="url(#g)" r="8"/><circle cx="40" cy="472" fill="url(#h)" r="8"/><circle cx="232" cy="472" fill="url(#i)" r="8"/><path d="m504 112a48 48 0 0 0 -96 0 49.512 49.512 0 0 0 .35 5.69 7.956 7.956 0 0 0 -.11 4.25l7.76 31.04v151.02a8 8 0 0 0 8 8h8v16a8 8 0 0 0 8 8h8v52a12.01 12.01 0 0 1 -12 12h-24a12.01 12.01 0 0 1 -12-12v-168a28 28 0 0 0 -56 0v256a12 12 0 0 1 -24 0v-16a28.043 28.043 0 0 0 -24-27.71v-8.29a8 8 0 0 0 -8-8h-24v-380a28.031 28.031 0 0 0 -28-28h-200a28.031 28.031 0 0 0 -28 28v440a28.031 28.031 0 0 0 28 28h200a28.031 28.031 0 0 0 28-28v-12h24a8 8 0 0 0 8-8v-7.3a12.014 12.014 0 0 1 8 11.3v16a28 28 0 0 0 56 0v-256a12 12 0 0 1 24 0v168a28.031 28.031 0 0 0 28 28h24a28.031 28.031 0 0 0 28-28v-52h8a8 8 0 0 0 8-8v-16h8a8 8 0 0 0 8-8v-151.02l7.76-31.04a7.956 7.956 0 0 0 -.11-4.25 49.512 49.512 0 0 0 .35-5.69zm-256 364a12.01 12.01 0 0 1 -12 12h-200a12.01 12.01 0 0 1 -12-12v-440a12.01 12.01 0 0 1 12-12h200a12.01 12.01 0 0 1 12 12zm32-28h-16v-16h16zm184-128h-16v-8h16zm16-24h-48v-136h48zm1.75-152h-51.5l-4-16h59.5zm-57.75-32a32 32 0 0 1 64 0z" fill="url(#j)"/><path d="m456 256a8 8 0 0 0 8-8v-48a8 8 0 0 0 -16 0v48a8 8 0 0 0 8 8z" fill="url(#k)"/></g></svg>