<?xml version="1.0" encoding="iso-8859-1"?>
<!-- Generator: Adobe Illustrator 19.0.0, SVG Export Plug-In . SVG Version: 6.00 Build 0)  -->
<svg version="1.1" id="Capa_1" xmlns="http://www.w3.org/2000/svg" xmlns:xlink="http://www.w3.org/1999/xlink" x="0px" y="0px"
	 viewBox="0 0 512 512" style="enable-background:new 0 0 512 512;" xml:space="preserve">
<g>
	<path style="fill:#FFE100;" d="M477.867,469.333H34.133c-14.14,0-25.6-11.46-25.6-25.6V170.667c0-14.14,11.46-25.6,25.6-25.6
		h443.733c14.14,0,25.6,11.46,25.6,25.6v273.067C503.467,457.873,492.006,469.333,477.867,469.333"/>
	<path style="fill:#FDCC00;" d="M469.333,145.067v-25.6c0-14.14-11.469-25.6-25.6-25.6H209.246c-2.816,0-5.47-1.28-7.228-3.473
		l-33.067-41.335c-3.234-4.045-8.115-6.391-13.295-6.391h-87.39c-14.131,0-25.6,11.46-25.6,25.6v76.8H469.333z"/>
	<g>
		<path style="fill:#FFFFFF;" d="M34.133,443.733V170.667c0-14.14,11.46-25.6,25.6-25.6h-25.6c-14.14,0-25.6,11.46-25.6,25.6
			v273.067c0,14.14,11.46,25.6,25.6,25.6h25.6C45.594,469.333,34.133,457.873,34.133,443.733"/>
		<path style="fill:#FFFFFF;" d="M93.867,42.667h-25.6c-14.131,0-25.6,11.46-25.6,25.6v76.8h25.6v-76.8
			C68.267,54.127,79.735,42.667,93.867,42.667"/>
	</g>
	<g>
		<path style="fill:#FFA800;" d="M477.867,145.067h-25.6c14.14,0,25.6,11.46,25.6,25.6v273.067c0,14.14-11.46,25.6-25.6,25.6h25.6
			c14.14,0,25.6-11.46,25.6-25.6V170.667C503.467,156.527,492.006,145.067,477.867,145.067"/>
		<path style="fill:#FFA800;" d="M443.733,93.867h-25.6c14.131,0,25.6,11.46,25.6,25.6v25.6h25.6v-25.6
			C469.333,105.327,457.865,93.867,443.733,93.867"/>
	</g>
	<g>
		<path d="M452.267,204.8H315.733c-4.719,0-8.533-3.823-8.533-8.533s3.814-8.533,8.533-8.533h136.533
			c4.719,0,8.533,3.823,8.533,8.533S456.986,204.8,452.267,204.8"/>
		<path d="M452.267,238.933H384c-4.719,0-8.533-3.823-8.533-8.533s3.814-8.533,8.533-8.533h68.267c4.719,0,8.533,3.823,8.533,8.533
			S456.986,238.933,452.267,238.933"/>
		<path d="M477.867,477.867H34.133C15.309,477.867,0,462.558,0,443.733V324.267c0-4.71,3.814-8.533,8.533-8.533
			s8.533,3.823,8.533,8.533v119.467c0,9.412,7.654,17.067,17.067,17.067h443.733c9.412,0,17.067-7.654,17.067-17.067V170.667
			c0-9.412-7.654-17.067-17.067-17.067H34.133c-9.412,0-17.067,7.654-17.067,17.067V256c0,4.71-3.814,8.533-8.533,8.533
			S0,260.71,0,256v-85.333c0-18.825,15.309-34.133,34.133-34.133h443.733c18.825,0,34.133,15.309,34.133,34.133v273.067
			C512,462.558,496.691,477.867,477.867,477.867"/>
		<path d="M17.067,290.133c0,4.71-3.814,8.533-8.533,8.533S0,294.844,0,290.133c0-4.71,3.814-8.533,8.533-8.533
			S17.067,285.423,17.067,290.133"/>
		<path d="M51.2,136.533h409.6v-17.067c0-9.412-7.654-17.067-17.067-17.067H209.246c-5.427,0-10.496-2.432-13.884-6.673
			l-33.075-41.344c-1.621-2.022-4.036-3.183-6.63-3.183h-87.39c-9.412,0-17.067,7.654-17.067,17.067V136.533z M469.333,153.6H42.667
			c-4.719,0-8.533-3.823-8.533-8.533v-76.8c0-18.825,15.309-34.133,34.133-34.133h87.39c7.799,0,15.078,3.499,19.951,9.591
			l33.075,41.335l235.051,0.273c18.825,0,34.133,15.309,34.133,34.133v25.6C477.867,149.777,474.052,153.6,469.333,153.6
			L469.333,153.6z"/>
	</g>
</g>
<g>
</g>
<g>
</g>
<g>
</g>
<g>
</g>
<g>
</g>
<g>
</g>
<g>
</g>
<g>
</g>
<g>
</g>
<g>
</g>
<g>
</g>
<g>
</g>
<g>
</g>
<g>
</g>
<g>
</g>
</svg>
