<svg id="Capa_1" enable-background="new 0 0 512 512" height="512" viewBox="0 0 512 512" width="512" xmlns="http://www.w3.org/2000/svg" xmlns:xlink="http://www.w3.org/1999/xlink"><linearGradient id="SVGID_1_" gradientUnits="userSpaceOnUse" x1="256" x2="256" y1="430" y2="85.701"><stop offset="0" stop-color="#ffc2cc"/><stop offset="1" stop-color="#fff2f4"/></linearGradient><linearGradient id="SVGID_2_" gradientUnits="userSpaceOnUse" x1="256" x2="256" y1="512" y2="0"><stop offset="0" stop-color="#fd3a84"/><stop offset="1" stop-color="#ffa68d"/></linearGradient><g><g><g><path d="m420.358 89.188c-6.357-5.31-15.817-4.46-21.129 1.898-5.31 6.358-4.46 15.818 1.898 21.128 51.396 42.922 80.873 105.899 80.873 172.786l-32.58-15c-6.18-17.46-22.87-30-42.42-30h-30c-8.28 0-15 6.72-15 15v150c0 8.28 6.72 15 15 15h30c5.26 0 10.31-.91 15-2.58l20 12.58 10-41.19 30-13.81v-45c0 8.284 6.716 15 15 15s15-6.716 15-15v-45c0-75.804-33.402-147.175-91.642-195.812zm-285.358 150.812h-30c-19.55 0-36.24 12.54-42.42 30l-32.58 15c0-66.887 29.477-129.864 80.872-172.786 6.358-5.31 7.208-14.77 1.898-21.128-5.313-6.358-14.77-7.208-21.129-1.898-58.239 48.637-91.641 120.008-91.641 195.812v45c0 8.284 6.716 15 15 15s15-6.716 15-15v45l32.58 15c6.18 17.46 22.87 30 42.42 30h30c8.28 0 15-6.72 15-15v-150c0-8.28-6.72-15-15-15z" fill="url(#SVGID_1_)"/></g></g><g><g><path d="m362.432 121.082c7.316 4.727 15.673 7.032 24.003 7.032 11.589 0 23.128-4.462 31.741-13.076 9.714-9.714 14.457-23.143 13.014-36.843-1.409-13.385-8.621-25.216-19.787-32.46-46.117-29.921-99.854-45.735-155.403-45.735s-109.286 15.814-155.402 45.734c-11.166 7.245-18.378 19.076-19.787 32.461-1.443 13.7 3.3 27.129 13.014 36.842 14.804 14.804 38.248 17.348 55.744 6.044 31.023-20.043 68.822-31.081 106.431-31.081s75.408 11.038 106.432 31.082zm-299.852 148.918h-2.58c-33.08 0-60 26.92-60 60s26.92 60 60 60h2.58c-1.67-4.69-2.58-9.74-2.58-15v-90c0-5.26.91-10.31 2.58-15zm389.42 0h-2.58c1.67 4.69 2.58 9.74 2.58 15v90c0 5.26-.91 10.31-2.58 15-4.52 12.77-14.66 22.9-27.42 27.42v19.58c0 8.27-6.73 15-15 15h-180c-24.81 0-45 20.18-45 45 0 8.28 6.72 15 15 15s15-6.72 15-15.01c0-8.26 6.73-14.99 15-14.99h180c24.81 0 45-20.19 45-45v-47c33.08 0 60-26.92 60-60s-26.92-60-60-60z" fill="url(#SVGID_2_)"/></g></g></g></svg>