<svg id="Capa_1" enable-background="new 0 0 513.138 513.138" height="512" viewBox="0 0 513.138 513.138" width="512" xmlns="http://www.w3.org/2000/svg"><g><path d="m275.386 69.528c-6.338-.53-12.669-.799-18.817-.799-59.183 0-114.824 23.047-156.673 64.896s-64.896 97.49-64.896 156.673v11.444h-20v-9.606c0-20.133 2.447-40.22 7.272-59.704.996-4.021-1.457-8.087-5.477-9.083-4.021-.995-8.087 1.457-9.083 5.478-5.117 20.662-7.712 41.962-7.712 63.309v11.457c0 7.25 5.898 13.149 13.149 13.149h4.351v31.304c-9.957 3.182-17.188 12.521-17.188 23.52v78.024c0 13.613 11.075 24.688 24.688 24.688 9.867 0 18.397-5.821 22.346-14.208h15.717v14.03c0 21.313 17.34 38.653 38.653 38.653h25.805c10.962 0 19.881-8.919 19.881-19.881v-164.588c0-10.962-8.918-19.881-19.881-19.881h-25.805c-21.313 0-38.653 17.34-38.653 38.653v14.03h-15.717c-2.903-6.165-8.28-10.941-14.846-13.039v-31.304h4.351c7.25 0 13.149-5.898 13.149-13.149v-13.295c0-55.176 21.487-107.05 60.502-146.066 39.016-39.016 90.89-60.502 146.066-60.502 5.732 0 11.643.251 17.567.747 4.136.353 7.754-2.721 8.099-6.849s-2.72-7.755-6.848-8.101zm-142.984 258.756v164.587c0 2.691-2.189 4.881-4.881 4.881h-18.305v-174.35h18.305c2.692.001 4.881 2.191 4.881 4.882zm-54.339 18.772c0-10.421 6.777-19.283 16.153-22.427v171.898c-9.376-3.144-16.153-12.006-16.153-22.427zm-15 98.014h-13.375v-68.984h13.375zm-28.375 4.52c0 5.342-4.346 9.688-9.688 9.688-5.342 0-9.688-4.346-9.688-9.688v-78.024c0-5.342 4.346-9.688 9.688-9.688s9.688 4.346 9.688 9.688z"/><path d="m275.39 34.434c-6.099-.45-12.177-.687-18.064-.704-.254 0-.503-.001-.757-.001-68.032 0-132.09 26.325-180.442 74.173-25.66 25.393-45.342 55.519-58.5 89.543-1.494 3.863.426 8.206 4.29 9.7.889.344 1.804.507 2.703.507 3.008 0 5.847-1.823 6.997-4.796 12.39-32.038 30.916-60.397 55.061-84.292 45.694-45.217 106.261-69.974 170.604-69.834 5.535.016 11.256.239 17.004.663 4.134.311 7.727-2.796 8.031-6.928.306-4.131-2.796-7.726-6.927-8.031z"/><path d="m490.442 203.966c-3.929 1.313-6.049 5.563-4.736 9.491 8.249 24.678 12.431 50.531 12.431 76.841v11.444h-20v-11.444c0-26.603-4.644-52.598-13.803-77.264-1.442-3.883-5.759-5.864-9.642-4.42-3.883 1.442-5.862 5.758-4.42 9.642 8.536 22.99 12.865 47.229 12.865 72.042v13.295c0 7.25 5.898 13.149 13.149 13.149h4.351v31.304c-6.566 2.099-11.943 6.875-14.846 13.04h-15.717v-14.03c0-21.313-17.34-38.653-38.653-38.653h-25.805c-10.963 0-19.882 8.919-19.882 19.881v117.162c0 4.142 3.358 7.5 7.5 7.5s7.5-3.358 7.5-7.5v-117.162c0-2.691 2.19-4.881 4.882-4.881h18.305v174.35h-18.305c-2.692 0-4.882-2.19-4.882-4.881v-15.463c0-4.142-3.358-7.5-7.5-7.5s-7.5 3.358-7.5 7.5v15.463c0 10.962 8.919 19.881 19.882 19.881h25.805c21.313 0 38.653-17.339 38.653-38.653v-14.03h15.717c3.949 8.387 12.479 14.208 22.346 14.208 13.613 0 24.688-11.075 24.688-24.688v-78.024c0-10.999-7.231-20.337-17.188-23.52v-31.304h4.351c7.25 0 13.149-5.898 13.149-13.149v-13.295c0-27.93-4.443-55.383-13.205-81.596-1.312-3.929-5.561-6.048-9.49-4.736zm-55.367 270.134c0 10.421-6.777 19.283-16.153 22.427v-171.898c9.376 3.144 16.153 12.006 16.153 22.427zm15-98.014h13.375v68.984h-13.375zm47.751 73.504c0 5.342-4.346 9.688-9.688 9.688s-9.688-4.346-9.688-9.688v-78.024c0-5.342 4.346-9.688 9.688-9.688s9.688 4.346 9.688 9.688z"/><path d="m505.638 53.99c4.142 0 7.5-3.358 7.5-7.5v-1.506c0-24.592-20.007-44.599-44.598-44.599h-126.681c-24.591 0-44.598 20.007-44.598 44.599v103.563c0 22.09 16.143 40.48 37.251 43.994v30.511c0 5.233 3.165 9.808 8.062 11.654 1.457.549 2.958.815 4.438.815 3.497 0 6.883-1.487 9.31-4.249l33.501-38.127h78.717c24.591 0 44.598-20.007 44.598-44.599v-70.094c0-4.142-3.358-7.5-7.5-7.5s-7.5 3.358-7.5 7.5v70.094c0 16.321-13.278 29.599-29.598 29.599h-82.111c-2.157 0-4.21.929-5.634 2.549l-31.283 35.603v-30.652c0-4.142-3.358-7.5-7.5-7.5h-.153c-16.32 0-29.598-13.278-29.598-29.599v-103.563c0-16.321 13.278-29.599 29.598-29.599h126.681c16.32 0 29.598 13.278 29.598 29.599v1.506c0 4.143 3.358 7.501 7.5 7.501z"/><path d="m465.704 49.134c0-4.191-1.911-8.054-5.241-10.597s-7.559-3.369-11.603-2.265l-54.024 14.747c-5.782 1.579-9.821 6.868-9.821 12.862v51.27c-6.849-1.755-14.97-.512-22.063 4.037-12.213 7.831-16.815 22.52-10.259 32.745 3.845 5.997 10.687 9.146 18.152 9.146 5.264 0 10.836-1.566 15.887-4.804 8.121-5.207 12.872-13.447 13.219-21.39.038-.308.065-.619.065-.938v-33.152l50.688-13.837v18.935c-1.244-.322-2.534-.549-3.865-.666-6.121-.537-12.579 1.152-18.198 4.755s-9.851 8.771-11.916 14.553c-2.275 6.371-1.671 13.002 1.656 18.192 3.328 5.19 9.102 8.506 15.842 9.098.744.065 1.492.097 2.244.097 5.431 0 11.018-1.688 15.954-4.853 5.619-3.603 9.851-8.771 11.916-14.553.885-2.478 1.328-4.994 1.352-7.451.004-.104.016-.206.016-.311v-75.62zm-87.069 94.513c-5.611 3.597-11.522 2.986-13.315.188-1.794-2.799.117-8.424 5.729-12.022 2.714-1.74 5.497-2.495 7.851-2.495 2.514 0 4.538.862 5.465 2.307 1.793 2.799-.119 8.425-5.73 12.022zm21.38-58.401v-20.093l50.688-13.836v20.093zm50.195 42.226c-.941 2.635-3.086 5.176-5.886 6.971-2.799 1.795-6.001 2.687-8.791 2.439-1.22-.107-3.429-.542-4.525-2.251s-.569-3.898-.157-5.051c.941-2.635 3.086-5.176 5.885-6.97 2.495-1.6 5.31-2.48 7.866-2.48.313 0 .622.013.925.04 1.22.107 3.429.542 4.524 2.251 1.097 1.71.571 3.899.159 5.051z"/></g></svg>