<svg height="512pt" viewBox="0 -46 512 512" width="512pt" xmlns="http://www.w3.org/2000/svg"><path d="m424.988281 136.925781c-8.773437-72.914062-70.84375-129.425781-146.125-129.425781-55.046875 0-103.03125 30.222656-128.28125 74.980469-22.601562-11.308594-50.8125-7.554688-69.664062 11.296875-13.371094 13.371094-19.148438 31.453125-17.34375 48.902344-32.839844 13.011718-56.074219 45.035156-56.074219 82.503906 0 49.003906 39.726562 88.730468 88.734375 88.730468h319.53125c49.007813 0 88.734375-39.726562 88.734375-88.730468 0-45.894532-34.839844-83.644532-79.511719-88.257813zm0 0" fill="#a3defe"/><path d="m257.707031 9.019531c-46.027343 6.628907-85.171875 34.546875-107.125 73.460938-22.601562-11.308594-50.816406-7.554688-69.667969 11.296875-13.367187 13.371094-19.144531 31.453125-17.34375 48.902344-32.835937 13.011718-56.070312 45.035156-56.070312 82.503906 0 49.003906 39.726562 88.730468 88.734375 88.730468h181.453125c-65.085938-54.480468-88.910156-235.335937-19.980469-304.894531zm0 0" fill="#7acefa"/><path d="m221.144531 128.660156c0-12.832031-13.0625-23.234375-29.179687-23.234375-16.113282 0-29.179688 10.402344-29.179688 23.234375 0 12.835938 13.066406 23.238282 29.179688 23.238282 16.117187 0 29.179687-10.402344 29.179687-23.238282zm0 0" fill="#fff"/><path d="m379.304688 128.660156c0-12.832031-13.066407-23.234375-29.179688-23.234375-16.117188 0-29.179688 10.402344-29.179688 23.234375 0 12.835938 13.0625 23.238282 29.179688 23.238282 16.113281 0 29.179688-10.402344 29.179688-23.238282zm0 0" fill="#fff"/><path d="m177.734375 228.757812v83.289063c-10.324219-4.238281-22.964844-5.589844-36.640625-3.179687-34.777344 6.132812-62.96875 34.183593-62.96875 62.65625 0 28.46875 28.191406 46.578124 62.96875 40.445312s62.972656-34.183594 62.972656-62.652344v-125.203125zm0 0" fill="#8eafe2"/><path d="m174.507812 398.214844c-38.765624-11.273438-52.785156-62.410156-42.335937-87.246094-30.550781 8.933594-54.046875 34.5625-54.046875 60.554688 0 28.46875 28.191406 46.578124 62.96875 40.445312 12.277344-2.164062 23.726562-7.070312 33.414062-13.753906zm0 0" fill="#6a96d7"/><path d="m345.191406 199.230469v83.289062c-10.324218-4.238281-22.96875-5.585937-36.640625-3.175781-34.777343 6.132812-62.972656 34.183594-62.972656 62.652344s28.195313 46.578125 62.972656 40.445312c34.777344-6.132812 62.972657-34.183594 62.972657-62.652344v-125.203124zm0 0" fill="#8eafe2"/><path d="m341.964844 368.6875c-38.765625-11.273438-52.785156-62.410156-42.335938-87.246094-30.550781 8.933594-54.050781 34.566406-54.050781 60.554688 0 28.46875 28.195313 46.578125 62.972656 40.445312 12.277344-2.164062 23.726563-7.070312 33.414063-13.753906zm0 0" fill="#6a96d7"/><path d="m177.734375 228.757812 193.789063-34.171874v-33.734376c0-9.625-8.6875-16.914062-18.164063-15.242187l-155.820313 27.476563c-11.453124 2.019531-19.804687 11.96875-19.804687 23.597656zm0 0" fill="#f7ef87"/><path d="m281.996094 158.191406-84.457032 14.894532c-11.453124 2.019531-19.804687 11.96875-19.804687 23.597656v32.070312l113.371094-19.988281c-13.886719-9.96875-15.4375-31.625-9.109375-50.574219zm0 0" fill="#efd176"/><path d="m82.632812 251.632812c-1.917968 0-3.839843-.734374-5.304687-2.195312-2.929687-2.929688-2.929687-7.679688 0-10.609375l23.480469-23.476563c2.929687-2.929687 7.675781-2.929687 10.605468 0 2.929688 2.929688 2.929688 7.675782 0 10.609376l-23.476562 23.476562c-1.464844 1.460938-3.386719 2.195312-5.304688 2.195312zm0 0" fill="#a3defe"/><path d="m432.171875 228.152344c-1.917969 0-3.835937-.730469-5.304687-2.195313-2.925782-2.929687-2.925782-7.675781 0-10.605469l13.476562-13.476562c2.929688-2.925781 7.675781-2.925781 10.605469 0 2.929687 2.929688 2.929687 7.679688 0 10.609375l-13.472657 13.472656c-1.464843 1.464844-3.382812 2.195313-5.304687 2.195313zm0 0" fill="#7acefa"/><path d="m487.050781 160.535156c-14.636719-16.128906-34.140625-26.746094-55.417969-30.277344-2.886718-18.207031-8.949218-35.5625-18.066406-51.667968-2.042968-3.605469-6.621094-4.871094-10.222656-2.832032-3.605469 2.039063-4.871094 6.617188-2.832031 10.222657 9.09375 16.0625 14.824219 33.507812 17.03125 51.84375.421875 3.476562 3.191406 6.203125 6.675781 6.5625 41.492188 4.285156 72.78125 39.019531 72.78125 80.796875 0 44.792968-36.441406 81.230468-81.234375 81.230468h-36.742187v-145.5625c0-6.8125-2.992188-13.226562-8.207032-17.601562-5.214844-4.378906-12.050781-6.210938-18.757812-5.027344l-155.820313 27.476563c-15.066406 2.65625-26 15.6875-26 30.984375v105.1875c-9.480469-2.109375-19.824219-2.261719-30.445312-.386719-5.992188 1.054687-11.855469 2.730469-17.480469 4.929687h-26.078125c-44.792969 0-81.234375-36.441406-81.234375-81.234374 0-33.523438 20.148438-63.171876 51.335938-75.527344 3.125-1.238282 5.042968-4.398438 4.695312-7.742188-1.640625-15.921875 3.894531-31.53125 15.191406-42.828125 16.109375-16.113281 40.628906-20.089843 61.003906-9.894531 3.574219 1.789062 7.925782.457031 9.886719-3.023438 24.765625-43.894531 71.417969-71.164062 121.75-71.164062 38.726563 0 74.734375 15.484375 101.390625 43.597656 2.847656 3.007813 7.59375 3.132813 10.601563.285156 3.003906-2.851562 3.132812-7.597656.28125-10.605468-29.515625-31.132813-69.390625-48.277344-112.273438-48.277344-53.46875 0-103.1875 27.785156-131.351562 72.960938-24.742188-9.351563-52.878907-3.503907-71.898438 15.515624-13.179687 13.179688-20.253906 30.933594-19.847656 49.398438-15.558594 7.210938-28.863281 18.398438-38.707031 32.613281-11.160156 16.113281-17.058594 35.027344-17.058594 54.691407 0 53.0625 43.171875 96.234374 96.234375 96.234374h.621094c-7.472657 6.230469-13.761719 13.570313-18.339844 21.675782-2.039063 3.609375-.765625 8.183594 2.839844 10.222656 1.167969.65625 2.433593.96875 3.683593.96875 2.617188 0 5.15625-1.371094 6.535157-3.8125 7.214843-12.765625 19.710937-23.246094 34.4375-29.394531.382812-.121094.75-.273438 1.105469-.453125 4.894531-1.957032 10.023437-3.4375 15.277343-4.367188 11.832031-2.082031 23.066407-1.140625 32.492188 2.730469 2.316406.953125 4.949219.6875 7.023437-.707031 2.078125-1.394532 3.324219-3.730469 3.324219-6.230469v-76.996094l11.332031-2v116.265625c0 24.953125-25.46875 49.746094-56.777344 55.269532-25.832031 4.546874-48.183593-5.871094-53.132812-24.796876-1.046875-4.007812-5.140625-6.410156-9.152344-5.355468-4.007812 1.046875-6.40625 5.144531-5.355468 9.152344 5.953124 22.769531 28.347656 37.0625 55.753906 37.0625 4.703125 0 9.554687-.421876 14.496094-1.292969 18.3125-3.226563 35.542968-12.113281 48.511718-25.015625 13.320313-13.253906 20.65625-29.242188 20.65625-45.023438v-27.898437h30.609375c-2.691406 6.734375-4.097656 13.679687-4.097656 20.578125 0 13.988281 5.898437 26.640625 16.601563 35.621094 10.535156 8.84375 24.824218 13.519531 40.542968 13.519531 4.765625 0 9.667969-.433594 14.632813-1.308594 18.316406-3.226563 35.542969-12.113281 48.515625-25.019531 12.859375-12.796875 20.121094-28.144532 20.605468-43.390625h36.789063c53.0625 0 96.234375-43.171875 96.234375-96.234375 0-23.960938-8.859375-46.921875-24.949219-64.648438zm-236.445312 145.878906h-39.039063v-76.007812l126.125-22.242188v64.179688c-9.484375-2.113281-19.824218-2.261719-30.441406-.386719-18.316406 3.226563-35.546875 12.113281-48.515625 25.015625-3.03125 3.015625-5.734375 6.179688-8.128906 9.441406zm113.417969 13.375c0 24.953126-25.46875 49.746094-56.773438 55.269532-16.953125 2.988281-32.601562-.269532-42.929688-8.933594-7.351562-6.171875-11.242187-14.515625-11.242187-24.128906 0-7.953125 2.597656-15.886719 7.136719-23.1875.453125-.53125.835937-1.121094 1.128906-1.761719 9.976562-14.800781 27.988281-26.699219 48.511719-30.316406 11.824219-2.085938 23.0625-1.144531 32.488281 2.726562 2.316406.953125 4.949219.683594 7.023438-.707031 2.078124-1.394531 3.324218-3.730469 3.324218-6.230469v-76.996093l11.332032-2zm0-131.496093-178.789063 31.523437v-23.132812c0-8.003906 5.726563-14.824219 13.609375-16.214844l155.816406-27.476562c.480469-.082032.960938-.125 1.433594-.125 1.851562 0 3.617188.644531 5.082031 1.871093 1.835938 1.542969 2.847657 3.710938 2.847657 6.109375zm-38.40625-93.113281v10.304687c0 4.140625 3.359374 7.5 7.5 7.5 4.144531 0 7.5-3.359375 7.5-7.5v-10.304687c0-4.144532-3.355469-7.5-7.5-7.5-4.140626 0-7.5 3.355468-7.5 7.5zm-124.144532 0v10.304687c0 4.140625 3.355469 7.5 7.5 7.5 4.140625 0 7.5-3.359375 7.5-7.5v-10.304687c0-4.144532-3.359375-7.5-7.5-7.5-4.144531 0-7.5 3.355468-7.5 7.5zm80.285156 5.832031c-2.707031 3.105469-6.609374 4.882812-10.710937 4.882812-4.105469 0-8.007813-1.777343-10.710937-4.882812-2.726563-3.121094-7.460938-3.445313-10.582032-.726563-3.125 2.722656-3.449218 7.457032-.730468 10.582032 5.554687 6.371093 13.582031 10.027343 22.019531 10.027343 8.441406 0 16.464843-3.65625 22.019531-10.027343 2.722656-3.125 2.398438-7.859376-.726562-10.582032-3.121094-2.722656-7.859376-2.398437-10.578126.726563zm0 0"/></svg>