<svg id="Capa_1" enable-background="new 0 0 512 512" height="512" viewBox="0 0 512 512" width="512" xmlns="http://www.w3.org/2000/svg" xmlns:xlink="http://www.w3.org/1999/xlink"><linearGradient id="SVGID_1_" gradientUnits="userSpaceOnUse" x1="345.025" x2="175.534" y1="572.16" y2="-78.808"><stop offset=".007" stop-color="#9494ff"/><stop offset=".992" stop-color="#ffe8dc" stop-opacity="0"/></linearGradient><g><path d="m512 184.552c0-77.209-114.615-139.799-256-139.799s-256 62.59-256 139.799c0 12.48 2.999 24.577 8.62 36.089 10.007 20.491 12.502 43.828 7.537 66.086-2.036 9.127-3.179 18.59-3.333 28.294-1.235 77.812 61.961 142.061 139.782 142.06 58.443 0 108.503-35.865 129.385-86.785 11.468-27.964 35.565-48.919 65.155-55.077 96.38-20.057 164.854-70.992 164.854-130.667z" fill="url(#SVGID_1_)"/><g><g fill="#00c"><g opacity=".1"><path d="m71.749 378.974h5.331c6.508 0 11.803-5.295 11.803-11.803v-16.457c0-6.508-5.295-11.802-11.803-11.802h-5.331c-6.508 0-11.803 5.294-11.803 11.802v16.457c0 6.508 5.295 11.803 11.803 11.803zm-1.803-28.26c0-.993.809-1.802 1.803-1.802h5.331c.994 0 1.803.809 1.803 1.802v16.457c0 .994-.809 1.803-1.803 1.803h-5.331c-.994 0-1.803-.809-1.803-1.803z"/><path d="m105.896 338.912h-5.444c-2.762 0-5 2.238-5 5s2.238 5 5 5h.444v25.062c0 2.762 2.238 5 5 5s5-2.238 5-5v-30.062c0-2.762-2.238-5-5-5z"/><path d="m105.896 391.417h-60.396c-2.762 0-5 2.238-5 5s2.238 5 5 5h60.396c2.762 0 5-2.238 5-5s-2.238-5-5-5z"/><path d="m105.896 409.428h-60.396c-2.762 0-5 2.238-5 5s2.238 5 5 5h60.396c2.762 0 5-2.238 5-5s-2.238-5-5-5z"/><path d="m405.656 116.013h69.396c2.762 0 5-2.238 5-5s-2.238-5-5-5h-69.396c-2.762 0-5 2.238-5 5s2.239 5 5 5z"/><path d="m475.053 124.022h-69.396c-2.762 0-5 2.238-5 5s2.238 5 5 5h69.396c2.762 0 5-2.238 5-5s-2.239-5-5-5z"/><path d="m412.459 93.569h5.332c6.508 0 11.802-5.295 11.802-11.803v-16.456c0-6.508-5.294-11.803-11.802-11.803h-5.332c-6.508 0-11.803 5.295-11.803 11.803v16.457c0 6.507 5.295 11.802 11.803 11.802zm-1.803-28.259c0-.994.809-1.803 1.803-1.803h5.332c.993 0 1.802.809 1.802 1.803v16.457c0 .994-.809 1.803-1.802 1.803h-5.332c-.994 0-1.803-.809-1.803-1.803z"/><path d="m441.163 71.949c2.762 0 5-2.238 5-5 0-1.898 1.544-3.442 3.442-3.442 1.131 0 2.001.443 2.586 1.318.752 1.125.847 2.725.247 4.176-1.561 3.776-9.363 11.179-14.405 15.229-1.654 1.329-2.29 3.558-1.586 5.559s2.594 3.341 4.716 3.341h18.108c2.762 0 5-2.238 5-5s-2.238-5-5-5h-5.185c3.195-3.311 6.24-7.033 7.594-10.308 1.887-4.564 1.447-9.632-1.177-13.555-2.447-3.66-6.42-5.76-10.898-5.76-7.412 0-13.442 6.03-13.442 13.442 0 2.762 2.238 5 5 5z"/><path d="m475.053 468.574h-69.396c-2.762 0-5 2.238-5 5s2.238 5 5 5h69.396c2.762 0 5-2.238 5-5s-2.239-5-5-5z"/><path d="m475.053 486.584h-69.396c-2.762 0-5 2.238-5 5s2.238 5 5 5h69.396c2.762 0 5-2.238 5-5s-2.239-5-5-5z"/><path d="m412.459 455.91h5.332c6.508 0 11.802-5.295 11.802-11.803v-16.456c0-6.508-5.294-11.803-11.802-11.803h-5.332c-6.508 0-11.803 5.295-11.803 11.803v16.456c0 6.508 5.295 11.803 11.803 11.803zm-1.803-28.259c0-.994.809-1.803 1.803-1.803h5.332c.993 0 1.802.809 1.802 1.803v16.456c0 .994-.809 1.803-1.802 1.803h-5.332c-.994 0-1.803-.809-1.803-1.803z"/><path d="m450.506 445.91h-9.395c-2.762 0-5 2.238-5 5s2.238 5 5 5h9.395c6.9 0 12.515-5.614 12.515-12.516 0-2.822-.95-5.42-2.531-7.516 1.581-2.096 2.531-4.693 2.531-7.515 0-6.901-5.614-12.516-12.515-12.516h-9.395c-2.762 0-5 2.238-5 5s2.238 5 5 5h9.395c1.387 0 2.515 1.129 2.515 2.516s-1.128 2.515-2.515 2.515h-9.395c-2.762 0-5 2.238-5 5s2.238 5 5 5h9.395c1.387 0 2.515 1.129 2.515 2.516s-1.128 2.516-2.515 2.516z"/></g><circle cx="359.415" cy="183.401" opacity=".1" r="56.44"/><circle cx="359.415" cy="359.33" opacity=".1" r="56.44"/><circle cx="152.585" cy="274.917" opacity=".1" r="56.44"/></g><g><g><g><g><path d="m132.1 460.588c0 11.5 9.33 20.83 20.84 20.83h206.12c11.51 0 20.84-9.33 20.84-20.83v-392.34c0-11.5-9.33-20.83-20.84-20.83h-206.12c-11.51 0-20.84 9.33-20.84 20.83z" fill="#00c" opacity=".1"/><path d="m379.9 41.247v392.34c0 11.5-9.33 20.83-20.84 20.83h-206.12c-11.51 0-20.84-9.33-20.84-20.83v-392.34c0-11.5 9.33-20.83 20.84-20.83h206.12c11.51 0 20.84 9.33 20.84 20.83z" fill="#ffd6bb"/><path d="m379.9 130.797v105.2c-6.35 2.48-13.26 3.84-20.48 3.84-31.18 0-56.44-25.26-56.44-56.44 0-31.17 25.26-56.44 56.44-56.44 7.22 0 14.13 1.36 20.48 3.84z" fill="#ffc599"/><path d="m209.02 274.917c0 31.17-25.26 56.44-56.44 56.44-7.22 0-14.13-1.36-20.48-3.84v-105.2c6.35-2.48 13.26-3.84 20.48-3.84 31.18 0 56.44 25.27 56.44 56.44z" fill="#ffc599"/><path d="m379.9 351.917v81.67c0 11.5-9.33 20.83-20.84 20.83h-206.12c-11.51 0-20.84-9.33-20.84-20.83v-81.67z" fill="#b3b3ff"/><path d="m379.9 351.917v60.01c-6.35 2.48-13.26 3.84-20.48 3.84-31.18 0-56.44-25.27-56.44-56.44 0-2.51.16-4.99.48-7.41z" fill="#9494ff"/><path d="m323.547 48.423 8.453-28.007h-152l8.453 28.007c1.274 4.222 5.164 7.11 9.573 7.11h115.946c4.411 0 8.3-2.889 9.575-7.11z" fill="#ffab66"/></g></g><g><circle cx="212.008" cy="37.975" fill="#6c6cff" r="4.854"/></g><g><circle cx="228.333" cy="37.975" fill="#6c6cff" r="4.854"/></g><g><path d="m296.601 42.828h-37.202c-2.573 0-4.659-2.086-4.659-4.659s2.086-4.659 4.659-4.659h37.202c2.573 0 4.659 2.086 4.659 4.659s-2.086 4.659-4.659 4.659z" fill="#ff8b00"/></g></g></g><g><path d="m56.792 280.71c-1.279 0-2.56-.488-3.535-1.465l-11.292-11.292c-1.953-1.952-1.953-5.118 0-7.07l11.292-11.292c1.951-1.953 5.117-1.952 7.07-.001l11.293 11.292c.938.938 1.465 2.21 1.465 3.536s-.526 2.598-1.465 3.536l-11.293 11.292c-.975.976-2.256 1.464-3.535 1.464zm-4.221-16.292 4.221 4.221 4.222-4.221-4.222-4.221z" fill="#6c6cff"/></g><g><path d="m96.145 89.253c-1.279 0-2.56-.488-3.535-1.465l-11.293-11.292c-1.953-1.952-1.953-5.118 0-7.07l11.292-11.292c1.951-1.953 5.119-1.953 7.07 0l11.292 11.292c1.953 1.952 1.953 5.118 0 7.07l-11.291 11.292c-.976.977-2.256 1.465-3.535 1.465zm-4.221-16.292 4.221 4.221 4.221-4.221-4.221-4.221z" fill="#ff9d33"/></g><g><path d="m100.452 191.626c-7.175 0-13.012-5.837-13.012-13.012s5.837-13.012 13.012-13.012 13.012 5.837 13.012 13.012-5.837 13.012-13.012 13.012zm0-16.023c-1.661 0-3.012 1.351-3.012 3.012s1.351 3.012 3.012 3.012 3.012-1.351 3.012-3.012-1.351-3.012-3.012-3.012z" fill="#ff6c6c"/></g><g><path d="m436.082 321.901c-7.175 0-13.012-5.837-13.012-13.012s5.837-13.012 13.012-13.012 13.012 5.837 13.012 13.012-5.837 13.012-13.012 13.012zm0-16.023c-1.661 0-3.012 1.351-3.012 3.012s1.351 3.012 3.012 3.012 3.012-1.351 3.012-3.012-1.351-3.012-3.012-3.012z" fill="#6c6cff"/></g><g><path d="m429.66 235.569c-7.175 0-13.012-5.838-13.012-13.013s5.837-13.012 13.012-13.012 13.012 5.837 13.012 13.012-5.837 13.013-13.012 13.013zm0-16.024c-1.661 0-3.012 1.351-3.012 3.012s1.351 3.013 3.012 3.013 3.012-1.352 3.012-3.013-1.351-3.012-3.012-3.012z" fill="#ff6c6c"/></g><g><g><path d="m311.331 309.25c-.779 0-1.569-.183-2.308-.567l-102.311-53.332c-1.652-.861-2.688-2.57-2.688-4.434s1.036-3.572 2.688-4.434l102.311-53.332c2.445-1.275 5.468-.327 6.745 2.122 1.276 2.449.326 5.469-2.122 6.745l-93.806 48.898 93.806 48.898c2.448 1.276 3.398 4.296 2.122 6.745-.891 1.712-2.633 2.691-4.437 2.691z" fill="#ff6c6c"/></g><g><circle cx="359.415" cy="159.401" fill="#ffab66" r="56.44"/><g><g><g><path d="m359.415 170.208c-9.16 0-16.613-7.453-16.613-16.613s7.453-16.613 16.613-16.613 16.613 7.453 16.613 16.613-7.453 16.613-16.613 16.613zm0-23.227c-3.646 0-6.613 2.967-6.613 6.613s2.967 6.613 6.613 6.613 6.613-2.967 6.613-6.613-2.966-6.613-6.613-6.613z" fill="#fff"/></g></g><g><g><path d="m371.028 181.821c-2.762 0-5-2.238-5-5 0-3.646-2.967-6.613-6.613-6.613s-6.613 2.967-6.613 6.613c0 2.762-2.238 5-5 5s-5-2.238-5-5c0-9.16 7.453-16.613 16.613-16.613s16.613 7.453 16.613 16.613c0 2.762-2.238 5-5 5z" fill="#fff"/></g></g></g></g><g><circle cx="359.415" cy="335.33" fill="#ff6c6c" r="56.44"/><g><g><g><path d="m359.415 346.137c-9.16 0-16.613-7.453-16.613-16.613s7.453-16.613 16.613-16.613 16.613 7.453 16.613 16.613-7.453 16.613-16.613 16.613zm0-23.227c-3.646 0-6.613 2.967-6.613 6.613s2.967 6.613 6.613 6.613 6.613-2.967 6.613-6.613-2.966-6.613-6.613-6.613z" fill="#fff"/></g></g><g><g><path d="m371.028 357.75c-2.762 0-5-2.238-5-5 0-3.646-2.967-6.613-6.613-6.613s-6.613 2.967-6.613 6.613c0 2.762-2.238 5-5 5s-5-2.238-5-5c0-9.16 7.453-16.613 16.613-16.613s16.613 7.453 16.613 16.613c0 2.762-2.238 5-5 5z" fill="#fff"/></g></g></g></g><g><circle cx="152.585" cy="250.917" fill="#8383ff" r="56.44"/><g><g><g><path d="m152.585 261.724c-9.16 0-16.613-7.453-16.613-16.613s7.453-16.613 16.613-16.613 16.613 7.453 16.613 16.613-7.453 16.613-16.613 16.613zm0-23.227c-3.646 0-6.613 2.967-6.613 6.613s2.967 6.613 6.613 6.613 6.613-2.967 6.613-6.613-2.967-6.613-6.613-6.613z" fill="#fff"/></g></g><g><g><path d="m164.198 273.337c-2.762 0-5-2.238-5-5 0-3.646-2.967-6.613-6.613-6.613s-6.613 2.967-6.613 6.613c0 2.762-2.238 5-5 5s-5-2.238-5-5c0-9.16 7.453-16.613 16.613-16.613s16.613 7.453 16.613 16.613c0 2.762-2.238 5-5 5z" fill="#fff"/></g></g></g></g></g><g fill="#00c"><path d="m420.855 335.33c0-24.789-14.766-46.182-35.957-55.884v-64.161c21.191-9.702 35.957-31.094 35.957-55.883s-14.766-46.182-35.957-55.884v-62.267c0-14.245-11.59-25.835-25.835-25.835h-206.126c-14.245 0-25.835 11.59-25.835 25.835v123.957c0 2.762 2.238 5 5 5s5-2.238 5-5v-123.957c0-8.731 7.104-15.835 15.835-15.835h23.349l7.38 24.452c1.926 6.379 7.697 10.665 14.36 10.665h115.947c6.663 0 12.435-4.286 14.36-10.666l7.38-24.451h23.35c8.731 0 15.835 7.104 15.835 15.835v58.689c-4.949-1.29-10.137-1.979-15.483-1.979-10.139 0-20.193 2.527-29.079 7.311-2.432 1.309-3.342 4.341-2.032 6.772 1.309 2.433 4.342 3.342 6.772 2.032 7.433-4.001 15.849-6.115 24.339-6.115 28.364 0 51.44 23.076 51.44 51.44s-23.076 51.439-51.44 51.439-51.44-23.075-51.44-51.439c0-8.106 1.845-15.88 5.484-23.104 1.242-2.466.25-5.473-2.217-6.715-2.464-1.243-5.473-.25-6.715 2.217-4.348 8.632-6.553 17.919-6.553 27.603 0 33.878 27.563 61.439 61.44 61.439 5.347 0 10.535-.69 15.483-1.979v57.008c-4.949-1.29-10.137-1.979-15.483-1.979-33.878 0-61.439 27.563-61.439 61.44s27.562 61.439 61.439 61.439c5.347 0 10.535-.69 15.483-1.979v38.795c0 8.731-7.104 15.835-15.835 15.835h-206.125c-8.731 0-15.835-7.104-15.835-15.835v-123.208c4.949 1.29 10.137 1.979 15.483 1.979 33.878 0 61.439-27.563 61.439-61.44s-27.562-61.44-61.439-61.44-61.44 27.563-61.44 61.44c0 24.789 14.766 46.182 35.957 55.884v126.784c0 14.245 11.59 25.835 25.835 25.835h206.127c14.245 0 25.835-11.59 25.835-25.835v-42.372c21.19-9.702 35.956-31.094 35.956-55.883zm-102.095-288.352c-.642 2.127-2.565 3.556-4.786 3.556h-115.948c-2.221 0-4.145-1.429-4.786-3.555l-6.508-21.563h138.536zm-217.615 203.939c0-28.364 23.076-51.44 51.44-51.44s51.439 23.076 51.439 51.44-23.075 51.44-51.439 51.44-51.44-23.076-51.44-51.44zm206.831 84.413c0-28.364 23.075-51.44 51.439-51.44s51.44 23.076 51.44 51.44-23.076 51.439-51.44 51.439-51.439-23.075-51.439-51.439z"/><path d="m71.749 351.974h5.331c6.508 0 11.803-5.295 11.803-11.803v-16.457c0-6.508-5.295-11.802-11.803-11.802h-5.331c-6.508 0-11.803 5.294-11.803 11.802v16.457c0 6.508 5.295 11.803 11.803 11.803zm-1.803-28.26c0-.993.809-1.802 1.803-1.802h5.331c.994 0 1.803.809 1.803 1.802v16.457c0 .994-.809 1.803-1.803 1.803h-5.331c-.994 0-1.803-.809-1.803-1.803z"/><path d="m105.896 311.912h-5.444c-2.762 0-5 2.238-5 5s2.238 5 5 5h.444v25.062c0 2.762 2.238 5 5 5s5-2.238 5-5v-30.062c0-2.762-2.238-5-5-5z"/><path d="m105.896 364.417h-60.396c-2.762 0-5 2.238-5 5s2.238 5 5 5h60.396c2.762 0 5-2.238 5-5s-2.238-5-5-5z"/><path d="m105.896 382.428h-60.396c-2.762 0-5 2.238-5 5s2.238 5 5 5h60.396c2.762 0 5-2.238 5-5s-2.238-5-5-5z"/><path d="m405.656 89.013h69.396c2.762 0 5-2.238 5-5s-2.238-5-5-5h-69.396c-2.762 0-5 2.238-5 5s2.239 5 5 5z"/><path d="m475.053 97.022h-69.396c-2.762 0-5 2.238-5 5s2.238 5 5 5h69.396c2.762 0 5-2.238 5-5s-2.239-5-5-5z"/><path d="m412.459 66.569h5.332c6.508 0 11.802-5.295 11.802-11.803v-16.456c0-6.508-5.294-11.803-11.802-11.803h-5.332c-6.508 0-11.803 5.295-11.803 11.803v16.457c0 6.507 5.295 11.802 11.803 11.802zm-1.803-28.259c0-.994.809-1.803 1.803-1.803h5.332c.993 0 1.802.809 1.802 1.803v16.457c0 .994-.809 1.803-1.802 1.803h-5.332c-.994 0-1.803-.809-1.803-1.803z"/><path d="m441.163 44.949c2.762 0 5-2.238 5-5 0-1.898 1.544-3.442 3.442-3.442 1.131 0 2.001.443 2.586 1.318.752 1.125.847 2.725.247 4.176-1.561 3.776-9.363 11.179-14.405 15.229-1.654 1.329-2.29 3.558-1.586 5.559s2.594 3.341 4.716 3.341h18.108c2.762 0 5-2.238 5-5s-2.238-5-5-5h-5.185c3.195-3.311 6.24-7.033 7.594-10.308 1.887-4.564 1.447-9.632-1.177-13.555-2.447-3.66-6.42-5.76-10.898-5.76-7.412 0-13.442 6.03-13.442 13.442 0 2.762 2.238 5 5 5z"/><path d="m475.053 441.574h-69.396c-2.762 0-5 2.238-5 5s2.238 5 5 5h69.396c2.762 0 5-2.238 5-5s-2.239-5-5-5z"/><path d="m475.053 459.584h-69.396c-2.762 0-5 2.238-5 5s2.238 5 5 5h69.396c2.762 0 5-2.238 5-5s-2.239-5-5-5z"/><path d="m412.459 388.849c-6.508 0-11.803 5.295-11.803 11.803v16.456c0 6.508 5.295 11.803 11.803 11.803h5.332c6.508 0 11.802-5.295 11.802-11.803v-16.456c0-6.508-5.294-11.803-11.802-11.803zm7.134 11.802v16.456c0 .994-.809 1.803-1.802 1.803h-5.332c-.994 0-1.803-.809-1.803-1.803v-16.456c0-.994.809-1.803 1.803-1.803h5.332c.993.001 1.802.809 1.802 1.803z"/><path d="m450.506 418.91h-9.395c-2.762 0-5 2.238-5 5s2.238 5 5 5h9.395c6.9 0 12.515-5.614 12.515-12.516 0-2.822-.95-5.42-2.531-7.516 1.581-2.096 2.531-4.693 2.531-7.515 0-6.901-5.614-12.516-12.515-12.516h-9.395c-2.762 0-5 2.238-5 5s2.238 5 5 5h9.395c1.387 0 2.515 1.129 2.515 2.516s-1.128 2.515-2.515 2.515h-9.395c-2.762 0-5 2.238-5 5s2.238 5 5 5h9.395c1.387 0 2.515 1.129 2.515 2.516s-1.128 2.516-2.515 2.516z"/></g><g><g><path d="m164.604 105.062h79.202c2.573 0 4.659 2.086 4.659 4.659s-2.086 4.659-4.659 4.659h-79.202c-2.573 0-4.659-2.086-4.659-4.659s2.086-4.659 4.659-4.659z" fill="#ffab66"/></g><g><path d="m164.604 123.871h58.202c2.573 0 4.659 2.086 4.659 4.659s-2.086 4.659-4.659 4.659h-58.202c-2.573 0-4.659-2.086-4.659-4.659s2.086-4.659 4.659-4.659z" fill="#ffab66"/></g></g><g><g><path d="m164.604 428.143h79.202c2.573 0 4.659-2.086 4.659-4.659s-2.086-4.659-4.659-4.659h-79.202c-2.573 0-4.659 2.086-4.659 4.659s2.086 4.659 4.659 4.659z" fill="#fff"/></g><g><path d="m164.604 409.334h58.202c2.573 0 4.659-2.086 4.659-4.659s-2.086-4.659-4.659-4.659h-58.202c-2.573 0-4.659 2.086-4.659 4.659s2.086 4.659 4.659 4.659z" fill="#fff"/></g></g><g><g><path d="m167.028 161.163c-1.279 0-2.559-.488-3.535-1.464-1.953-1.953-1.953-5.118-.001-7.071l5.833-5.834c.938-.938 2.21-1.465 3.536-1.465s2.598.526 3.535 1.465l5.834 5.834c1.953 1.952 1.953 5.118 0 7.07-1.951 1.953-5.119 1.953-7.07 0l-2.299-2.298-2.297 2.298c-.976.977-2.256 1.465-3.536 1.465z" fill="#ff6c6c"/></g></g><g><g><path d="m198.372 161.163c-1.279 0-2.559-.488-3.535-1.464-1.953-1.953-1.953-5.118-.001-7.071l5.833-5.834c.938-.938 2.21-1.465 3.536-1.465s2.598.526 3.535 1.465l5.834 5.834c1.953 1.952 1.953 5.118 0 7.07-1.951 1.953-5.119 1.953-7.07 0l-2.299-2.298-2.297 2.298c-.977.977-2.257 1.465-3.536 1.465z" fill="#ff6c6c"/></g></g></g></g></svg>